HIERARCHY
ROOT Hips
{
	OFFSET 0.000000 0.000000 0.000000
	CHANNELS 6 Xposition Yposition Zposition Zrotation Yrotation Xrotation 
	JOINT LHipJoint
	{
		OFFSET 0.000000 0.000000 0.000000
		CHANNELS 3 Zrotation Yrotation Xrotation
		JOINT LeftUpLeg
		{
			OFFSET 1.363060 -1.794630 0.839290
			CHANNELS 3 Zrotation Yrotation Xrotation
			JOINT LeftLeg
			{
				OFFSET 2.448110 -6.726130 0.000000
				CHANNELS 3 Zrotation Yrotation Xrotation
				JOINT LeftFoot
				{
					OFFSET 2.562200 -7.039590 0.000000
					CHANNELS 3 Zrotation Yrotation Xrotation
					JOINT LeftToeBase
					{
						OFFSET 0.157640 -0.433110 2.322550
						CHANNELS 3 Zrotation Yrotation Xrotation
						End Site
						{
							OFFSET 0.000000 0.000000 0.000000
						}
					}
				}
			}
		}
	}
	JOINT RHipJoint
	{
		OFFSET 0.000000 0.000000 0.000000
		CHANNELS 3 Zrotation Yrotation Xrotation
		JOINT RightUpLeg
		{
			OFFSET -1.305520 -1.794630 0.839290
			CHANNELS 3 Zrotation Yrotation Xrotation
			JOINT RightLeg
			{
				OFFSET -2.542530 -6.985550 0.000000
				CHANNELS 3 Zrotation Yrotation Xrotation
				JOINT RightFoot
				{
					OFFSET -2.568260 -7.056230 0.000000
					CHANNELS 3 Zrotation Yrotation Xrotation
					JOINT RightToeBase
					{
						OFFSET -0.164730 -0.452590 2.363150
						CHANNELS 3 Zrotation Yrotation Xrotation
						End Site
						{
							OFFSET 0.000000 0.000000 0.000000
						}
					}
				}
			}
		}
	}
	JOINT LowerBack
	{
		OFFSET 0.000000 0.000000 0.000000
		CHANNELS 3 Zrotation Yrotation Xrotation
		JOINT Spine
		{
			OFFSET 0.028270 2.035590 -0.193380
			CHANNELS 3 Zrotation Yrotation Xrotation
			JOINT Spine1
			{
				OFFSET 0.056720 2.048850 -0.042750
				CHANNELS 3 Zrotation Yrotation Xrotation
				JOINT Neck
				{
					OFFSET 0.000000 0.000000 0.000000
					CHANNELS 3 Zrotation Yrotation Xrotation
					JOINT Neck1
					{
						OFFSET -0.054170 1.746240 0.172020
						CHANNELS 3 Zrotation Yrotation Xrotation
						JOINT Head
						{
							OFFSET 0.104070 1.761360 -0.123970
							CHANNELS 3 Zrotation Yrotation Xrotation
							End Site
							{
								OFFSET 0.000000 0.000000 0.000000
							}
						}
					}
				}
				JOINT LeftShoulder
				{
					OFFSET 0.000000 0.000000 0.000000
					CHANNELS 3 Zrotation Yrotation Xrotation
					JOINT LeftArm
					{
						OFFSET 3.362410 1.200890 -0.311210
						CHANNELS 3 Zrotation Yrotation Xrotation
						JOINT LeftForeArm
						{
							OFFSET 4.983000 -0.000000 -0.000000
							CHANNELS 3 Zrotation Yrotation Xrotation
							JOINT LeftHand
							{
								OFFSET 3.483560 -0.000000 -0.000000
								CHANNELS 3 Zrotation Yrotation Xrotation
								JOINT LeftFingerBase
								{
									OFFSET 0.000000 0.000000 0.000000
									CHANNELS 3 Zrotation Yrotation Xrotation
									JOINT LeftHandIndex1
									{
										OFFSET 0.715260 -0.000000 -0.000000
										CHANNELS 3 Zrotation Yrotation Xrotation
										End Site
										{
											OFFSET 0.000000 0.000000 0.000000
										}
									}
								}
								JOINT LThumb
								{
									OFFSET 0.000000 0.000000 0.000000
									CHANNELS 3 Zrotation Yrotation Xrotation
									End Site
									{
										OFFSET 0.000000 0.000000 0.000000
									}
								}
							}
						}
					}
				}
				JOINT RightShoulder
				{
					OFFSET 0.000000 0.000000 0.000000
					CHANNELS 3 Zrotation Yrotation Xrotation
					JOINT RightArm
					{
						OFFSET -3.136600 1.374050 -0.404650
						CHANNELS 3 Zrotation Yrotation Xrotation
						JOINT RightForeArm
						{
							OFFSET -5.241900 -0.000000 -0.000000
							CHANNELS 3 Zrotation Yrotation Xrotation
							JOINT RightHand
							{
								OFFSET -3.444170 -0.000000 -0.000000
								CHANNELS 3 Zrotation Yrotation Xrotation
								JOINT RightFingerBase
								{
									OFFSET 0.000000 0.000000 0.000000
									CHANNELS 3 Zrotation Yrotation Xrotation
									JOINT RightHandIndex1
									{
										OFFSET -0.622530 -0.000000 -0.000000
										CHANNELS 3 Zrotation Yrotation Xrotation
										End Site
										{
											OFFSET 0.000000 0.000000 0.000000
										}
									}
								}
								JOINT RThumb
								{
									OFFSET 0.000000 0.000000 0.000000
									CHANNELS 3 Zrotation Yrotation Xrotation
									End Site
									{
										OFFSET 0.000000 0.000000 0.000000
									}
								}
							}
						}
					}
				}
			}
		}
	}
}
MOTION
Frames: 5
Frame Time: 0.008333
-10.675250 16.778729 -0.755970 -175.874527 81.012769 -171.694626 -11.635289 5.620719 0.763541 4.048368 10.238419 8.297750 -0.131829 2.046440 27.145482 0.889291 -0.299268 17.728505 -0.537299 0.000000 -77.090900 8.347314 -1.038521 1.298613 16.917865 -6.200841 -31.357207 2.477459 -0.749745 21.887217 -2.576079 -10.705181 -7.768369 -0.797600 0.000000 -18.409301 2.758351 -5.579598 -3.754391 0.079639 -5.950213 -2.743193 -6.486132 -5.832286 3.579888 11.982147 -21.183323 -11.759105 -2.507936 -0.140266 -1.021605 0.000000 0.000000 0.000000 1.481423 15.684883 1.672118 -32.173094 0.276684 -5.635295 -1.844703 -55.050743 -0.004426 2.168783 0.296106 0.003916 -0.147130 0.166401 0.000000 0.000000 0.000000 0.000000 0.000000 0.000000 0.000000 18.993739 -19.710856 -0.286250 79.712462 -17.800243 -10.290516 4.032991 23.209103 0.011113 3.411422 5.263975 0.154481 0.086550 -0.037393 -0.000000 0.000000 0.000000 0.000000 0.000000 0.000000 0.000000 
-10.450449 16.792646 -0.734581 -175.250697 80.963445 -171.261420 -11.722241 5.588269 0.788987 4.511990 10.249535 7.023033 0.041664 2.155488 30.154003 1.062412 -0.061887 19.588071 -0.555600 0.000000 -72.838900 8.352749 -1.113001 1.194461 17.108639 -6.403380 -30.905684 2.430888 -0.874461 23.162965 -2.563156 -10.551945 -8.331442 -0.633900 0.000000 -16.101100 2.860727 -5.495772 -3.719512 0.093417 -5.871434 -2.750814 -6.481674 -5.756141 3.536833 11.946181 -20.981646 -11.686658 -2.517128 -0.142429 -1.002305 0.000000 0.000000 0.000000 1.420524 15.716190 1.640466 -32.918239 0.652372 -5.502494 -1.879347 -54.901627 -0.004007 2.097104 0.297224 0.004024 -0.147608 0.160919 -0.000000 0.000000 0.000000 0.000000 0.000000 0.000000 0.000000 18.879716 -19.433427 -0.291137 79.365402 -17.172929 -10.407367 4.039214 22.958269 0.011068 3.368764 5.200080 0.150683 0.087183 -0.037693 -0.000000 0.000000 0.000000 0.000000 0.000000 0.000000 0.000000 
-10.230361 16.806215 -0.712756 -174.663665 80.961031 -170.836438 -11.805358 5.521923 0.796907 4.869275 10.269641 5.597250 0.190822 2.254210 33.273769 1.237445 0.519764 20.956958 -0.398200 0.000001 -67.285200 8.348806 -1.179957 1.102313 17.299475 -6.570829 -30.417568 2.401465 -0.971565 24.293153 -2.560746 -10.375449 -9.106730 -0.427500 0.000000 -13.760300 2.945847 -5.399428 -3.668849 0.102090 -5.778340 -2.756813 -6.478895 -5.666065 3.488625 11.913036 -20.751471 -11.619572 -2.523706 -0.144230 -0.984761 0.000000 0.000000 0.000000 1.364433 15.746462 1.613301 -33.748203 1.070338 -5.351477 -1.922712 -54.685641 -0.003544 2.002631 0.308755 0.004232 -0.148281 0.154648 -0.000000 0.000000 0.000000 0.000000 0.000000 0.000000 0.000000 18.745266 -19.116844 -0.288411 79.013125 -16.468569 -10.518410 4.040167 22.752788 0.011038 3.296956 5.135635 0.145586 0.087967 -0.038343 -0.000000 0.000000 0.000000 0.000000 0.000000 0.000000 0.000000 
-10.015074 16.819009 -0.690889 -174.093465 81.002117 -170.404330 -11.884826 5.425954 0.781959 5.127609 10.313307 4.044297 0.317563 2.351314 36.444263 1.405359 1.439910 21.781493 -0.054600 0.000000 -60.903400 8.334615 -1.240557 1.022574 17.487042 -6.688975 -29.872231 2.387505 -1.042251 25.263572 -2.571516 -10.196649 -10.060236 -0.188401 -0.000000 -11.396100 3.019386 -5.290827 -3.597977 0.107355 -5.671430 -2.760025 -6.475426 -5.562570 3.436756 11.875713 -20.503396 -11.559407 -2.526172 -0.145513 -0.969416 0.000000 0.000000 0.000000 1.304836 15.780023 1.590372 -34.654785 1.513825 -5.181778 -1.974880 -54.393122 -0.003066 1.890143 0.334247 0.004638 -0.149169 0.147640 0.000000 0.000000 0.000000 0.000000 0.000000 0.000000 0.000000 18.580598 -18.773490 -0.278655 78.654676 -15.686101 -10.589888 4.035128 22.595714 0.011044 3.181801 5.085283 0.138991 0.089007 -0.039403 -0.000000 0.000000 0.000000 0.000000 0.000000 0.000000 0.000000 
-9.804409 16.830827 -0.668908 -173.597040 81.081867 -170.027829 -11.957002 5.305524 0.742917 5.275348 10.376754 2.398246 0.426736 2.452802 39.591461 1.561705 2.672469 22.050201 0.457499 -0.000000 -54.259700 8.314840 -1.294325 0.953107 17.653431 -6.758682 -29.254387 2.385301 -1.089232 26.067054 -2.594594 -10.026495 -11.137224 0.070900 -0.000000 -9.094200 3.072820 -5.170820 -3.503350 0.107125 -5.550925 -2.759757 -6.472779 -5.445794 3.379412 11.832375 -20.227094 -11.502741 -2.527486 -0.146581 -0.955412 0.000000 0.000000 0.000000 1.239460 15.816915 1.571905 -35.620524 1.971198 -4.982050 -2.035592 -54.015558 -0.002626 1.775429 0.370620 0.005242 -0.150384 0.139911 -0.000000 0.000000 0.000000 0.000000 0.000000 0.000000 0.000000 18.395604 -18.392253 -0.263984 78.294343 -14.856730 -10.660202 4.024030 22.520658 0.011073 3.038774 5.040083 0.131398 0.090178 -0.040912 -0.000000 0.000000 0.000000 0.000000 0.000000 0.000000 0.000000 
